<?xml version="1.0" encoding="UTF-8" standalone="no"?>
<!DOCTYPE svg PUBLIC "-//W3C//DTD SVG 1.1//EN" "http://www.w3.org/Graphics/SVG/1.1/DTD/svg11.dtd">
<svg width="100%" height="100%" viewBox="0 0 2880 841" version="1.1" xmlns="http://www.w3.org/2000/svg" xmlns:xlink="http://www.w3.org/1999/xlink" xml:space="preserve" xmlns:serif="http://www.serif.com/" style="fill-rule:evenodd;clip-rule:evenodd;stroke-linejoin:round;stroke-miterlimit:2;">
    <g transform="matrix(1,0,0,1,-4557.519269,-1585.219651)">
        <g transform="matrix(4.166667,0,0,4.166667,0,0)">
            <g transform="matrix(1,0,0,1,899.526439,0)">
                <g transform="matrix(1,0,0,1,302.0577,580.265516)">
                    <path d="M0,-198.517C3.152,-192.351 19.256,-156.038 20.117,-153.971C21.363,-150.976 21.954,-148.235 19.741,-145.173C16.202,-140.277 13.132,-135.043 9.824,-129.979C7.601,-126.576 5.283,-123.235 3.055,-119.836C0.09,-115.309 -2.823,-110.746 -5.77,-106.207C-9.058,-101.143 -12.365,-96.091 -15.655,-91.028C-19.226,-85.533 -22.763,-80.016 -26.358,-74.537C-29.189,-70.222 -32.127,-65.976 -34.941,-61.651C-37.383,-57.897 -39.697,-54.059 -42.109,-50.285C-43.651,-47.872 -45.263,-45.505 -46.852,-43.122C-49.277,-39.482 -51.727,-35.858 -54.135,-32.207C-57.003,-27.86 -59.858,-23.505 -62.68,-19.128C-64.654,-16.068 -66.553,-12.96 -68.509,-9.887C-69.18,-8.834 -69.982,-7.861 -70.607,-6.784C-71.006,-6.097 -71.19,-5.286 -71.469,-4.532C-70.712,-4.289 -69.956,-3.843 -69.196,-3.835C-62.509,-3.771 -55.822,-3.785 -49.134,-3.774C-32.886,-3.748 -16.639,-3.719 -0.391,-3.693C13.402,-3.67 27.194,-3.649 40.986,-3.626C52.793,-3.607 64.6,-3.592 76.407,-3.565C78.722,-3.559 79.629,-2.728 79.984,-0.501C80.163,0.626 79.695,1.196 78.636,1.356C78.226,1.417 77.802,1.396 77.384,1.394C66.099,1.348 54.813,1.282 43.527,1.255C28.951,1.22 14.375,1.219 -0.201,1.199C-13.836,1.181 -27.472,1.161 -41.107,1.136C-54.168,1.112 -67.229,1.064 -80.29,1.057C-88.7,1.053 -97.11,1.124 -105.52,1.095C-106.277,1.093 -107.279,0.798 -107.699,0.268C-107.965,-0.069 -107.519,-1.19 -107.131,-1.79C-104.842,-5.333 -102.47,-8.823 -100.137,-12.338C-97.947,-15.636 -95.774,-18.946 -93.587,-22.247C-91.11,-25.987 -88.606,-29.71 -86.148,-33.463C-82.613,-38.861 -79.128,-44.294 -75.583,-49.686C-72.977,-53.649 -70.299,-57.564 -67.669,-61.511C-65.794,-64.325 -63.951,-67.159 -62.084,-69.977C-59.707,-73.567 -57.302,-77.137 -54.942,-80.738C-51.522,-85.958 -48.145,-91.206 -44.723,-96.425C-42.556,-99.73 -40.336,-103.001 -38.151,-106.295C-35.271,-110.635 -32.404,-114.983 -29.528,-119.325C-26.653,-123.667 -23.727,-127.977 -20.907,-132.356C-16.309,-139.496 -11.808,-146.699 -7.21,-153.84C-3.578,-159.482 -0.057,-165.29 1.19,-171.891C2.594,-179.321 3.801,-186.939 0.914,-194.394C0.549,-195.336 -1.565,-199.636 -1.348,-199.476C-1.334,-199.465 -1.362,-199.509 -1.368,-199.525C-0.619,-199.934 -0.221,-198.95 0,-198.517" style="fill:rgb(189,159,89);fill-rule:nonzero;"/>
                </g>
                <g transform="matrix(1,0,0,1,365.9276,493.380416)">
                    <path d="M0,29.038C-3.816,29.174 -7.632,29.332 -11.449,29.407C-11.762,29.413 -12.228,28.92 -12.381,28.557C-13.35,26.258 -14.242,23.928 -15.177,21.615C-15.763,20.167 -16.387,18.734 -16.982,17.29C-19.34,11.564 -21.702,5.84 -24.044,0.107C-24.85,-1.867 -27.458,-7.557 -28.272,-8.84C-29.7,-6.62 -30.862,-4.814 -32.026,-3.008C-35.046,1.677 -38.09,6.346 -41.079,11.051C-43.929,15.538 -46.703,20.072 -49.546,24.564C-51.217,27.205 -52.964,29.799 -54.664,32.422C-57.014,36.049 -59.372,39.671 -61.689,43.318C-64.619,47.928 -67.51,52.562 -70.42,57.184C-71.891,59.52 -73.411,61.826 -74.813,64.202C-75.227,64.905 -75.313,65.801 -75.549,66.609C-74.775,66.808 -74.002,67.174 -73.227,67.18C-65.391,67.242 -57.554,67.248 -49.717,67.265C-34.983,67.297 -20.25,67.324 -5.516,67.358C-2.587,67.365 -1.904,67.89 -1.092,70.694C-0.638,72.26 -1.104,73.066 -2.722,73.08C-8.102,73.127 -13.483,73.083 -18.863,73.074C-33.909,73.05 -48.955,73.029 -64.001,73.002C-77.531,72.978 -91.062,72.947 -104.593,72.926C-105.376,72.924 -106.158,73.006 -106.941,73.016C-108.943,73.041 -109.646,71.902 -108.604,70.2C-106.975,67.538 -105.277,64.917 -103.594,62.287C-101.267,58.649 -98.91,55.029 -96.595,51.382C-94.223,47.646 -91.884,43.888 -89.536,40.136C-87.167,36.348 -84.823,32.543 -82.434,28.767C-80.011,24.937 -77.53,21.144 -75.103,17.316C-72.817,13.711 -70.575,10.078 -68.302,6.464C-66.471,3.552 -64.605,0.661 -62.786,-2.259C-60.334,-6.193 -57.933,-10.158 -55.471,-14.085C-53.811,-16.732 -52.059,-19.321 -50.393,-21.964C-47.977,-25.796 -45.632,-29.673 -43.198,-33.493C-41.187,-36.65 -39.148,-39.791 -37.007,-42.859C-36.148,-44.089 -35.628,-44.007 -35.048,-42.634C-33.512,-38.994 -32.084,-35.307 -30.607,-31.641C-30.256,-30.772 -29.87,-29.917 -29.52,-29.047C-27.735,-24.607 -25.988,-20.151 -24.167,-15.725C-22.404,-11.439 -20.527,-7.201 -18.778,-2.91C-17.461,0.32 -16.279,3.605 -15.015,6.856C-13.845,9.866 -12.663,12.871 -11.456,15.866C-10.073,19.295 -8.552,22.673 -7.302,26.149C-6.702,27.82 -5.793,28.489 -4.086,28.405C-2.74,28.339 -1.386,28.433 -0.035,28.455C-0.023,28.65 -0.012,28.844 0,29.038" style="fill:rgb(189,159,89);fill-rule:nonzero;"/>
                </g>
                <g transform="matrix(-1,0,0,1,837.061,-261.188284)">
                    <rect x="417.122" y="641.641" width="2.817" height="201.41" style="fill:rgb(189,159,89);"/>
                </g>
                <g transform="matrix(1,0,0,1,498.9422,401.170016)">
                    <path d="M0,54.144L-41.948,54.144L-41.948,52.747L-41.419,52.784C-40.941,52.784 -40.281,52.722 -39.437,52.595C-38.594,52.47 -37.832,52.193 -37.153,51.765C-36.473,51.337 -36.133,50.658 -36.133,49.726L-36.133,4.418C-36.133,3.487 -36.473,2.808 -37.153,2.379C-37.832,1.952 -38.594,1.675 -39.437,1.549C-40.281,1.423 -40.941,1.36 -41.419,1.36L-41.948,1.36L-41.948,0L-18.312,0L-18.312,1.36L-18.84,1.36C-19.319,1.36 -19.967,1.423 -20.785,1.549C-21.604,1.675 -22.352,1.952 -23.031,2.379C-23.711,2.808 -24.051,3.487 -24.051,4.418L-24.051,52.747L-14.989,52.747C-13.479,52.747 -11.931,52.344 -10.345,51.538C-8.759,50.733 -7.237,49.746 -5.777,48.575C-4.317,47.404 -3.008,46.228 -1.85,45.045C-0.693,43.862 0.227,42.867 0.906,42.062L1.964,40.854L0,54.144Z" style="fill:rgb(189,159,89);fill-rule:nonzero;"/>
                </g>
                <g transform="matrix(1,0,0,1,530.4301,402.681116)">
                    <path d="M0,51.538C2.214,51.538 4.203,50.714 5.966,49.065C7.727,47.417 9.225,45.296 10.459,42.703C11.692,40.111 12.636,37.316 13.291,34.321C13.945,31.325 14.272,28.481 14.272,25.787C14.272,22.39 13.932,19.149 13.253,16.065C12.573,12.983 11.61,10.239 10.364,7.834C9.118,5.431 7.614,3.537 5.852,2.151C4.09,0.768 2.139,0.075 0,0.075C-2.216,0.075 -4.204,0.774 -5.966,2.171C-7.728,3.567 -9.226,5.462 -10.459,7.853C-11.692,10.245 -12.63,12.988 -13.271,16.084C-13.913,19.181 -14.235,22.415 -14.235,25.787C-14.235,28.633 -13.913,31.558 -13.271,34.566C-12.63,37.575 -11.699,40.356 -10.478,42.911C-9.257,45.465 -7.766,47.542 -6.004,49.141C-4.242,50.739 -2.241,51.538 0,51.538M0,52.86C-4.934,52.86 -9.396,51.658 -13.385,49.254C-17.375,46.851 -20.54,43.603 -22.881,39.512C-25.222,35.422 -26.392,30.847 -26.392,25.787C-26.392,20.728 -25.222,16.147 -22.881,12.044C-20.54,7.942 -17.375,4.688 -13.385,2.284C-9.396,-0.119 -4.934,-1.322 0,-1.322C4.933,-1.322 9.395,-0.119 13.385,2.284C17.374,4.688 20.54,7.942 22.881,12.044C25.222,16.147 26.392,20.728 26.392,25.787C26.392,30.847 25.222,35.422 22.881,39.512C20.54,43.603 17.374,46.851 13.385,49.254C9.395,51.658 4.933,52.86 0,52.86" style="fill:rgb(189,159,89);fill-rule:nonzero;"/>
                </g>
                <g transform="matrix(1,0,0,1,580.7964,427.337116)">
                    <path d="M0,2.264C3.247,2.264 5.6,2.139 7.061,1.886C9.049,1.484 10.635,0.59 11.818,-0.794C13.001,-2.178 13.85,-3.795 14.366,-5.646C14.882,-7.496 15.141,-9.264 15.141,-10.951C15.141,-13.744 14.492,-16.462 13.196,-19.106C11.899,-21.749 10.119,-23.435 7.853,-24.165C6.57,-24.468 4.43,-24.619 1.435,-24.619L-1.926,-24.543L-1.926,2.264L0,2.264ZM27.827,28.242C26.619,28.242 25.133,28.128 23.372,27.901C19.747,27.448 17.066,25.938 15.33,23.37C14.448,22.087 13.655,19.947 12.951,16.952C12.094,13.277 10.924,10.306 9.439,8.041C7.552,5.122 5.072,3.662 2.001,3.662L-1.926,3.662L-1.926,23.559C-1.85,23.559 -1.812,23.623 -1.812,23.748C-1.812,24.73 -1.473,25.447 -0.793,25.9C0.289,26.58 1.712,26.92 3.474,26.92L4.002,26.92L4.002,28.204L-19.785,28.204L-19.785,26.92L-19.37,26.92C-16.324,26.92 -14.549,26.064 -14.046,24.353L-14.046,-22.089C-14.272,-22.869 -14.725,-23.435 -15.405,-23.788C-16.462,-24.367 -17.784,-24.657 -19.37,-24.657L-19.785,-24.657L-19.785,-25.94C-8.282,-25.94 -0.642,-25.953 3.134,-25.978C7.186,-25.978 10.232,-25.889 12.271,-25.713C15.065,-25.436 17.588,-24.605 19.842,-23.222C22.094,-21.837 23.894,-20.068 25.241,-17.917C26.587,-15.765 27.261,-13.443 27.261,-10.951C27.261,-7.452 26.034,-4.374 23.579,-1.718C21.125,0.937 17.985,2.591 14.159,3.246C19.772,4.429 23.158,7.035 24.316,11.061C25.624,15.668 26.933,19.935 28.242,23.861C28.62,24.818 29.199,25.51 29.979,25.938C31.137,26.593 32.408,26.92 33.792,26.92L33.944,26.92L33.944,28.204L27.827,28.242Z" style="fill:rgb(189,159,89);fill-rule:nonzero;"/>
                </g>
                <g transform="matrix(1,0,0,1,660.6883,401.396616)">
                    <path d="M0,54.219L-42.023,54.219L-42.023,52.86L-41.495,52.86C-41.017,52.86 -40.356,52.804 -39.512,52.69C-38.669,52.577 -37.908,52.3 -37.228,51.86C-36.549,51.42 -36.208,50.733 -36.208,49.801L-36.208,4.456C-36.208,3.525 -36.549,2.839 -37.228,2.398C-37.908,1.958 -38.669,1.681 -39.512,1.567C-40.356,1.454 -41.017,1.398 -41.495,1.398L-42.023,1.398L-42.023,0L0,0L1.964,13.328L0.944,12.12C-1.045,9.78 -3.285,7.602 -5.777,5.589C-9.276,2.794 -12.346,1.398 -14.989,1.398L-24.051,1.398L-24.051,26.43L-14.498,26.43C-13.214,26.43 -12.321,25.688 -11.818,24.202C-11.491,23.246 -11.327,22.201 -11.327,21.068L-11.365,20.729L-10.081,20.729L-10.081,33.528L-11.365,33.528L-11.327,33.189C-11.327,32.056 -11.491,31.012 -11.818,30.055C-12.321,28.57 -13.214,27.827 -14.498,27.827L-24.051,27.827L-24.051,52.86L-14.989,52.86C-12.346,52.86 -9.276,51.463 -5.777,48.67C-3.285,46.655 -1.045,44.479 0.944,42.137L1.964,40.929L0,54.219Z" style="fill:rgb(189,159,89);fill-rule:nonzero;"/>
                </g>
                <g transform="matrix(1,0,0,1,674.1664,405.626116)">
                    <path d="M0,45.383L0,-0.642C-0.025,-0.667 -0.051,-0.68 -0.075,-0.68C-0.755,-1.435 -1.517,-1.988 -2.36,-2.341C-3.203,-2.693 -3.99,-2.914 -4.719,-3.002C-5.45,-3.09 -5.941,-3.134 -6.192,-3.134L-6.305,-3.134L-6.305,-4.418L12.649,-4.418L41.231,30.583L41.231,0.038C41.231,-0.919 40.891,-1.61 40.211,-2.039C39.532,-2.467 38.77,-2.743 37.927,-2.87C37.083,-2.996 36.422,-3.058 35.945,-3.058L35.416,-3.02L35.416,-4.418L48.329,-4.418L48.329,-3.02L47.8,-3.058C47.322,-3.058 46.661,-2.996 45.818,-2.87C44.975,-2.743 44.214,-2.467 43.534,-2.039C42.854,-1.61 42.514,-0.919 42.514,0.038L42.514,49.801L41.231,49.801L1.397,1.094L1.397,45.383C1.397,46.315 1.731,46.995 2.398,47.422C3.064,47.851 3.814,48.127 4.644,48.253C5.475,48.38 6.129,48.442 6.608,48.442L7.099,48.442L7.099,49.801L-5.701,49.801L-5.701,48.442L-5.172,48.442C-4.719,48.442 -4.077,48.38 -3.247,48.253C-2.416,48.127 -1.668,47.851 -1.001,47.422C-0.333,46.995 0,46.315 0,45.383" style="fill:rgb(189,159,89);fill-rule:nonzero;"/>
                </g>
                <g transform="matrix(1,0,0,1,754.4359,419.068016)">
                    <path d="M0,18.802L-9.062,-4.305L-18.01,18.802L0,18.802ZM24.844,36.473L1.17,36.473L1.17,35.189L1.888,35.227C2.29,35.227 2.775,35.183 3.342,35.095C3.908,35.006 4.405,34.811 4.833,34.509C5.261,34.207 5.475,33.755 5.475,33.15L5.399,32.508L0.491,20.086L-18.539,20.086L-23.372,32.508L-23.409,32.961C-23.409,33.692 -23.094,34.207 -22.466,34.509C-21.836,34.811 -21.176,35 -20.483,35.075C-19.791,35.151 -19.357,35.189 -19.181,35.189L-19.143,35.189L-19.143,36.473L-32.056,36.473L-32.056,35.189L-31.602,35.189C-28.255,35.189 -26.002,34.333 -24.844,32.622L-5.324,-17.671L-1.095,-17.671L18.237,32.017C18.69,33.024 19.394,33.755 20.351,34.207C21.735,34.862 23.208,35.189 24.769,35.189L24.844,35.189L24.844,36.473Z" style="fill:rgb(189,159,89);fill-rule:nonzero;"/>
                </g>
                <g transform="matrix(1,0,0,1,483.4245,480.270416)">
                    <path d="M0,54.144C-4.934,54.144 -9.402,52.935 -13.404,50.52C-17.406,48.103 -20.578,44.85 -22.919,40.758C-25.26,36.668 -26.43,32.094 -26.43,27.035C-26.43,21.974 -25.26,17.406 -22.919,13.328C-20.578,9.251 -17.406,6.01 -13.404,3.606C-9.402,1.203 -4.934,0 0,0C2.743,0 5.197,0.34 7.362,1.02C9.552,1.573 11.584,2.272 13.46,3.115C15.335,3.959 16.852,4.719 18.01,5.4L19.785,6.419L21.786,19.747L20.464,17.86C19.582,16.6 18.406,15.059 16.934,13.235C15.461,11.409 13.787,9.591 11.912,7.778C10.036,5.966 8.073,4.431 6.022,3.172C3.97,1.914 1.963,1.284 0,1.284C-2.77,1.284 -5.236,2.354 -7.401,4.494C-9.566,6.633 -11.277,9.452 -12.536,12.951C-13.794,16.449 -14.423,20.238 -14.423,24.316L-14.31,27.035C-13.832,32.824 -12.36,37.682 -9.892,41.608C-7.426,45.535 -4.129,48.002 0,49.009C1.359,49.236 2.68,49.349 3.964,49.349C7.287,49.349 10.313,48.72 13.045,47.46C15.776,46.202 18.022,44.654 19.785,42.817L19.785,44.666C19.507,45.322 18.828,46.164 17.746,47.197C16.663,48.229 15.241,49.273 13.479,50.331C11.717,51.388 9.69,52.288 7.4,53.029C5.109,53.772 2.643,54.144 0,54.144" style="fill:rgb(189,159,89);fill-rule:nonzero;"/>
                </g>
                <g transform="matrix(1,0,0,1,536.6974,497.941616)">
                    <path d="M0,18.802L-9.062,-4.305L-18.01,18.802L0,18.802ZM24.844,36.473L1.17,36.473L1.17,35.189L1.888,35.227C2.29,35.227 2.775,35.183 3.342,35.095C3.908,35.006 4.405,34.811 4.833,34.508C5.261,34.207 5.475,33.754 5.475,33.15L5.399,32.508L0.491,20.086L-18.539,20.086L-23.372,32.508L-23.409,32.961C-23.409,33.692 -23.095,34.207 -22.466,34.508C-21.837,34.811 -21.176,35 -20.483,35.075C-19.791,35.151 -19.357,35.189 -19.181,35.189L-19.143,35.189L-19.143,36.473L-32.056,36.473L-32.056,35.189L-31.603,35.189C-28.255,35.189 -26.002,34.333 -24.844,32.622L-5.324,-17.671L-1.095,-17.671L18.237,32.017C18.69,33.024 19.394,33.754 20.351,34.207C21.735,34.862 23.208,35.189 24.769,35.189L24.844,35.189L24.844,36.473Z" style="fill:rgb(189,159,89);fill-rule:nonzero;"/>
                </g>
                <g transform="matrix(1,0,0,1,585.5157,506.210716)">
                    <path d="M0,2.264C3.247,2.264 5.6,2.139 7.061,1.886C9.049,1.484 10.635,0.59 11.818,-0.794C13.001,-2.178 13.85,-3.796 14.366,-5.646C14.882,-7.496 15.141,-9.264 15.141,-10.951C15.141,-13.744 14.492,-16.463 13.196,-19.106C11.899,-21.749 10.119,-23.435 7.853,-24.165C6.57,-24.468 4.43,-24.619 1.435,-24.619L-1.926,-24.543L-1.926,2.264L0,2.264ZM27.827,28.242C26.619,28.242 25.133,28.128 23.372,27.901C19.747,27.448 17.066,25.938 15.33,23.37C14.448,22.087 13.655,19.947 12.951,16.952C12.094,13.277 10.924,10.306 9.439,8.041C7.552,5.122 5.072,3.662 2.001,3.662L-1.926,3.662L-1.926,23.559C-1.85,23.559 -1.812,23.623 -1.812,23.748C-1.812,24.73 -1.473,25.447 -0.793,25.9C0.289,26.58 1.712,26.92 3.474,26.92L4.002,26.92L4.002,28.204L-19.785,28.204L-19.785,26.92L-19.37,26.92C-16.324,26.92 -14.549,26.064 -14.046,24.352L-14.046,-22.089C-14.272,-22.869 -14.725,-23.435 -15.405,-23.789C-16.462,-24.367 -17.784,-24.657 -19.37,-24.657L-19.785,-24.657L-19.785,-25.94C-8.282,-25.94 -0.642,-25.953 3.134,-25.978C7.186,-25.978 10.232,-25.889 12.271,-25.714C15.065,-25.436 17.588,-24.605 19.842,-23.222C22.094,-21.837 23.894,-20.069 25.241,-17.917C26.587,-15.765 27.261,-13.443 27.261,-10.951C27.261,-7.452 26.034,-4.374 23.579,-1.718C21.125,0.937 17.985,2.591 14.159,3.246C19.772,4.429 23.158,7.035 24.316,11.061C25.624,15.668 26.933,19.935 28.242,23.861C28.62,24.818 29.199,25.51 29.979,25.938C31.137,26.593 32.408,26.92 33.792,26.92L33.944,26.92L33.944,28.204L27.827,28.242Z" style="fill:rgb(189,159,89);fill-rule:nonzero;"/>
                </g>
                <g transform="matrix(1,0,0,1,646.7186,480.043616)">
                    <path d="M0,54.22L-4.115,54.22L-23.56,4.343C-23.989,3.412 -24.643,2.738 -25.524,2.322C-26.405,1.908 -27.286,1.649 -28.167,1.548C-29.049,1.448 -29.652,1.398 -29.979,1.398L-30.168,1.398L-30.168,0L-6.494,0L-6.494,1.398L-7.212,1.36C-7.615,1.36 -8.093,1.404 -8.647,1.492C-9.2,1.58 -9.691,1.763 -10.119,2.039C-10.547,2.316 -10.761,2.756 -10.761,3.361L-10.648,4.04L3.738,40.816L18.048,3.927L18.085,3.475C18.085,2.82 17.815,2.348 17.273,2.059C16.732,1.769 16.141,1.587 15.499,1.511C14.857,1.436 14.398,1.398 14.121,1.398L13.894,1.398L13.894,0L26.732,0L26.732,1.398L26.052,1.36C22.805,1.36 20.628,2.191 19.52,3.851L0,54.22Z" style="fill:rgb(189,159,89);fill-rule:nonzero;"/>
                </g>
                <g transform="matrix(1,0,0,1,696.5558,497.941616)">
                    <path d="M0,18.802L-9.062,-4.305L-18.01,18.802L0,18.802ZM24.844,36.473L1.17,36.473L1.17,35.189L1.888,35.227C2.29,35.227 2.775,35.183 3.342,35.095C3.908,35.006 4.405,34.811 4.833,34.508C5.261,34.207 5.475,33.754 5.475,33.15L5.399,32.508L0.491,20.086L-18.539,20.086L-23.372,32.508L-23.409,32.961C-23.409,33.692 -23.094,34.207 -22.466,34.508C-21.836,34.811 -21.176,35 -20.483,35.075C-19.791,35.151 -19.357,35.189 -19.181,35.189L-19.143,35.189L-19.143,36.473L-32.056,36.473L-32.056,35.189L-31.602,35.189C-28.255,35.189 -26.002,34.333 -24.844,32.622L-5.324,-17.671L-1.095,-17.671L18.237,32.017C18.69,33.024 19.394,33.754 20.351,34.207C21.735,34.862 23.208,35.189 24.769,35.189L24.844,35.189L24.844,36.473Z" style="fill:rgb(189,159,89);fill-rule:nonzero;"/>
                </g>
                <g transform="matrix(1,0,0,1,767.5375,480.043516)">
                    <path d="M0,54.144L-41.948,54.144L-41.948,52.747L-41.419,52.784C-40.941,52.784 -40.281,52.722 -39.437,52.595C-38.594,52.47 -37.832,52.193 -37.153,51.765C-36.473,51.337 -36.133,50.658 -36.133,49.726L-36.133,4.418C-36.133,3.487 -36.473,2.808 -37.153,2.379C-37.832,1.952 -38.594,1.675 -39.437,1.549C-40.281,1.423 -40.941,1.36 -41.419,1.36L-41.948,1.36L-41.948,0L-18.312,0L-18.312,1.36L-18.841,1.36C-19.319,1.36 -19.967,1.423 -20.785,1.549C-21.604,1.675 -22.352,1.952 -23.031,2.379C-23.711,2.808 -24.051,3.487 -24.051,4.418L-24.051,52.747L-14.989,52.747C-13.479,52.747 -11.931,52.344 -10.345,51.539C-8.759,50.733 -7.237,49.746 -5.777,48.575C-4.317,47.404 -3.008,46.228 -1.85,45.045C-0.693,43.862 0.227,42.867 0.906,42.062L1.964,40.854L0,54.144Z" style="fill:rgb(189,159,89);fill-rule:nonzero;"/>
                </g>
                <g transform="matrix(1,0,0,1,829.3062,480.270216)">
                    <path d="M0,54.219L-23.749,54.219L-23.749,52.86L-23.22,52.86C-22.743,52.86 -22.088,52.804 -21.257,52.69C-20.426,52.577 -19.665,52.3 -18.973,51.86C-18.28,51.42 -17.934,50.733 -17.934,49.801L-17.934,27.827L-37.379,27.827L-37.379,49.801C-37.379,50.733 -37.046,51.42 -36.379,51.86C-35.712,52.3 -34.963,52.577 -34.132,52.69C-33.301,52.804 -32.647,52.86 -32.169,52.86L-31.64,52.86L-31.64,54.219L-55.314,54.219L-55.314,52.86L-54.785,52.86C-54.307,52.86 -53.647,52.804 -52.803,52.69C-51.96,52.577 -51.198,52.3 -50.518,51.86C-49.839,51.42 -49.499,50.733 -49.499,49.801L-49.499,4.456C-49.499,3.525 -49.839,2.839 -50.518,2.398C-51.198,1.958 -51.96,1.681 -52.803,1.567C-53.647,1.454 -54.307,1.398 -54.785,1.398L-55.314,1.398L-55.314,0L-31.64,0L-31.64,1.398L-32.169,1.398C-32.647,1.398 -33.301,1.454 -34.132,1.567C-34.963,1.681 -35.712,1.958 -36.379,2.398C-37.046,2.839 -37.379,3.525 -37.379,4.456L-37.379,26.43L-17.934,26.43L-17.934,4.456C-17.934,3.525 -18.28,2.839 -18.973,2.398C-19.665,1.958 -20.426,1.681 -21.257,1.567C-22.088,1.454 -22.743,1.398 -23.22,1.398L-23.749,1.398L-23.749,0L0,0L0,1.398L-0.528,1.398C-1.007,1.398 -1.668,1.454 -2.511,1.567C-3.355,1.681 -4.115,1.958 -4.795,2.398C-5.475,2.839 -5.814,3.525 -5.814,4.456L-5.814,49.801C-5.814,50.733 -5.475,51.42 -4.795,51.86C-4.115,52.3 -3.355,52.577 -2.511,52.69C-1.668,52.804 -1.007,52.86 -0.528,52.86L0,52.86L0,54.219Z" style="fill:rgb(189,159,89);fill-rule:nonzero;"/>
                </g>
                <g transform="matrix(1,0,0,1,858.9058,481.554616)">
                    <path d="M0,51.538C2.214,51.538 4.203,50.714 5.965,49.065C7.727,47.417 9.225,45.296 10.459,42.703C11.692,40.111 12.635,37.316 13.29,34.321C13.945,31.325 14.272,28.481 14.272,25.787C14.272,22.39 13.932,19.149 13.253,16.065C12.573,12.983 11.61,10.239 10.364,7.834C9.119,5.431 7.614,3.537 5.852,2.151C4.09,0.768 2.14,0.075 0,0.075C-2.216,0.075 -4.204,0.774 -5.965,2.171C-7.728,3.567 -9.225,5.462 -10.459,7.853C-11.692,10.245 -12.63,12.988 -13.271,16.084C-13.914,19.181 -14.234,22.415 -14.234,25.787C-14.234,28.633 -13.914,31.558 -13.271,34.566C-12.63,37.575 -11.698,40.356 -10.477,42.911C-9.257,45.465 -7.765,47.542 -6.003,49.141C-4.242,50.739 -2.24,51.538 0,51.538M0,52.86C-4.934,52.86 -9.396,51.658 -13.384,49.254C-17.375,46.851 -20.54,43.603 -22.881,39.512C-25.221,35.422 -26.392,30.847 -26.392,25.787C-26.392,20.728 -25.221,16.147 -22.881,12.044C-20.54,7.942 -17.375,4.688 -13.384,2.284C-9.396,-0.119 -4.934,-1.322 0,-1.322C4.933,-1.322 9.394,-0.119 13.384,2.284C17.374,4.688 20.54,7.942 22.88,12.044C25.221,16.147 26.392,20.728 26.392,25.787C26.392,30.847 25.221,35.422 22.88,39.512C20.54,43.603 17.374,46.851 13.384,49.254C9.394,51.658 4.933,52.86 0,52.86" style="fill:rgb(189,159,89);fill-rule:nonzero;"/>
                </g>
                <g transform="matrix(0.579219,0,0,0.579219,-761.923621,-555.777336)">
                    <g transform="matrix(50,0,0,50,2846.265612,1964.446837)">
                    </g>
                    <text x="2100.816px" y="1964.447px" style="font-family:'Aeonik-Light', 'Aeonik';font-weight:250;font-size:50px;fill:rgb(189,159,89);">D<tspan x="2143.316px 2162.766px 2202.066px 2238.916px 2258.366px 2294.116px 2341.116px 2364.166px 2406.666px 2453.666px 2476.716px 2510.316px 2550.516px 2589.116px 2627.266px 2667.216px 2713.716px 2750.566px 2770.016px 2808.816px " y="1964.447px 1964.447px 1964.447px 1964.447px 1964.447px 1964.447px 1964.447px 1964.447px 1964.447px 1964.447px 1964.447px 1964.447px 1964.447px 1964.447px 1964.447px 1964.447px 1964.447px 1964.447px 1964.447px 1964.447px ">IREITO DO PASSAGEIRO</tspan></text>
                </g>
            </g>
        </g>
    </g>
</svg>
